<?xml version="1.0" encoding="UTF-8"?>
<svg id="Layer_1" data-name="Layer 1" xmlns="http://www.w3.org/2000/svg" viewBox="0 0 876.8 751.01">
  <defs>
    <style>
      .cls-1 {
        fill: #444034;
      }

      .cls-2 {
        fill: #f0e7c6;
      }
    </style>
  </defs>
  <path class="cls-2" d="M137.48,320.99l36.71,18.36c1.1,.55,1.8,1.67,1.8,2.9v234.18c0,3.43-4.64,4.52-6.16,1.44l-13.75-27.8c-.89-1.8-3.18-2.37-4.8-1.2l-13.35,9.58c-2.15,1.54-5.14,0-5.14-2.64v-231.92c0-2.41,2.54-3.98,4.7-2.9Z"/>
  <path class="cls-1" d="M97.72,432.75c3.53,2.2,8.06-.36,8.06-4.52v-85.58c0-1.53-.7-2.99-1.86-4-30.54-26.48-30.54-52.95-30.54-79.43s21.6-60.46,59.41-64.81c37.8-4.34,226.83,86.41,259.23,86.41s367.25-75.61,410.45-86.41c73.54-18.38,81.01-91.81,38.74-108.01S602.65,0,581.04,0,267.8,64.81,159.79,86.41C51.77,108.01,24.77,172.82,24.77,172.82c-74.79,154.25,40.56,239.72,72.95,259.93Z"/>
  <path class="cls-1" d="M192.19,394.32v70.28c0,3.27,2.29,6.08,5.5,6.68,22.34,4.22,106.18,23.58,129.51,79.59,27,64.81-20.31,114.59-66.86,103.2-46.55-11.39-203.17-81.6-224.78-70.8-10.8,5.4-10.8,64.81-5.4,75.61s165.59,71.1,248.43,91.81c21.6,5.4,431.31-61.21,507.67-91.81,68.93-27.62,79.57-53.33,87.55-94.12,7.76-39.68-.19-119.7-17.34-159.72-16.2-37.8-43.21-70.21-75.61-64.81-70.07,11.68-405.05,91.81-448.26,91.81-34.9,0-105.02-31.71-130.71-43.9-4.52-2.15-9.71,1.16-9.71,6.16Z"/>
</svg>